<?xml version="1.0" encoding="iso-8859-1"?>
<!-- Generator: Adobe Illustrator 19.0.0, SVG Export Plug-In . SVG Version: 6.00 Build 0)  -->
<svg version="1.1" id="Capa_1" xmlns="http://www.w3.org/2000/svg" xmlns:xlink="http://www.w3.org/1999/xlink" x="0px" y="0px"
	 viewBox="0 0 512 512" style="enable-background:new 0 0 512 512;" xml:space="preserve">
<rect x="102.4" y="68.267" style="fill:#77BAFC;" width="281.6" height="358.4"/>
<circle style="fill:#FCFCE8;" cx="349.867" cy="170.667" r="17.067"/>
<path style="fill:#ED1C24;" d="M349.867,119.467c-28.262,0.026-51.174,22.938-51.2,51.2c0,44.373,36.173,95.275,51.2,114.492
	c15.027-19.217,51.2-70.076,51.2-114.492C401.041,142.404,378.129,119.492,349.867,119.467z M349.867,204.8
	c-18.85,0-34.133-15.283-34.133-34.133s15.283-34.133,34.133-34.133c18.85,0,34.133,15.283,34.133,34.133
	S368.717,204.8,349.867,204.8z"/>
<path d="M366.933,409.6H145.067v17.067h221.867v42.667c0,14.14-11.46,25.6-25.6,25.6h-204.8c-14.14,0-25.6-11.46-25.6-25.6v-384
	H332.8V68.267H110.933v-25.6c0-14.14,11.46-25.6,25.6-25.6h204.8c14.14,0,25.6,11.46,25.6,25.6v41.242H384V42.667
	C383.974,19.115,364.885,0.026,341.333,0h-204.8c-23.552,0.026-42.641,19.115-42.667,42.667v426.667
	c0.026,23.552,19.115,42.641,42.667,42.667h204.8c23.552-0.026,42.641-19.115,42.667-42.667v-153.6h-17.067V409.6z"/>
<rect x="230.4" y="452.267" width="17.067" height="17.067"/>
<rect x="170.667" y="34.133" width="17.067" height="17.067"/>
<rect x="204.8" y="34.133" width="17.067" height="17.067"/>
<path d="M170.667,102.4h-34.133c-4.71,0-8.533,3.823-8.533,8.533v34.133h17.067v-25.6h25.6V102.4z"/>
<path d="M281.6,170.667c0,62.225,59.324,130.731,61.85,133.615c3.115,3.533,8.508,3.874,12.041,0.759
	c0.265-0.239,0.521-0.486,0.759-0.759c2.56-2.884,61.884-71.39,61.884-133.615c0-37.7-30.566-68.267-68.267-68.267
	S281.6,132.966,281.6,170.667z M401.067,170.667c0,44.373-36.173,95.275-51.2,114.492c-15.027-19.217-51.2-70.076-51.2-114.492
	c0-28.279,22.921-51.2,51.2-51.2C378.146,119.467,401.067,142.387,401.067,170.667z"/>
<path d="M315.733,170.667c0,18.85,15.283,34.133,34.133,34.133c18.85,0,34.133-15.283,34.133-34.133s-15.283-34.133-34.133-34.133
	C331.017,136.533,315.733,151.817,315.733,170.667z M366.933,170.667c0,9.429-7.637,17.067-17.067,17.067
	c-9.429,0-17.067-7.637-17.067-17.067c0-9.429,7.637-17.067,17.067-17.067C359.296,153.6,366.933,161.237,366.933,170.667z"/>
<path d="M221.867,179.2H204.8v59.733h-25.6V256h34.133c4.71,0,8.533-3.823,8.533-8.533V179.2z"/>
<path d="M238.933,179.2v68.267c0,4.71,3.823,8.533,8.533,8.533H281.6v-17.067H256V179.2H238.933z"/>
<path d="M221.867,384V281.6c0-4.71-3.823-8.533-8.533-8.533h-51.2v17.067H204.8V384H221.867z"/>
<path d="M315.733,290.133v-17.067h-68.267c-4.71,0-8.533,3.823-8.533,8.533v34.133c0,4.71,3.823,8.533,8.533,8.533h51.2V307.2H256
	v-17.067H315.733z"/>
<path d="M238.933,349.867v17.067H256V358.4h42.667v-17.067h-51.2C242.756,341.333,238.933,345.156,238.933,349.867z"/>
<g>
</g>
<g>
</g>
<g>
</g>
<g>
</g>
<g>
</g>
<g>
</g>
<g>
</g>
<g>
</g>
<g>
</g>
<g>
</g>
<g>
</g>
<g>
</g>
<g>
</g>
<g>
</g>
<g>
</g>
</svg>
