<?xml version="1.0" encoding="iso-8859-1"?>
<!-- Generator: Adobe Illustrator 19.0.0, SVG Export Plug-In . SVG Version: 6.00 Build 0)  -->
<svg version="1.1" id="Layer_1" xmlns="http://www.w3.org/2000/svg" xmlns:xlink="http://www.w3.org/1999/xlink" x="0px" y="0px"
	 viewBox="0 0 512 512" style="enable-background:new 0 0 512 512;" xml:space="preserve">
<path style="fill:#5D7EAC;" d="M503.916,205.276v25.994c0,9.108-6.43,16.951-15.361,18.737l-47.645,9.529
	c-3.318,11.856-8.018,23.125-13.934,33.629l26.955,40.433c5.052,7.579,4.053,17.67-2.388,24.11l-18.381,18.381
	c-6.44,6.44-16.532,7.44-24.11,2.388l-40.433-26.955c-10.504,5.917-21.773,10.617-33.629,13.934l-3.979,19.89H256.44l-3.979-19.89
	c-11.856-3.318-23.125-8.018-33.629-13.934l-40.433,26.955c-7.579,5.052-17.67,4.053-24.11-2.388l-18.381-18.381
	c-6.44-6.44-7.44-16.532-2.388-24.11l26.955-40.433c-5.917-10.504-10.617-21.773-13.934-33.629l-47.645-9.529
	c-8.931-1.786-15.361-9.629-15.361-18.737v-25.995c0-9.108,6.43-16.951,15.361-18.737l47.645-9.529
	c3.318-11.855,8.018-23.125,13.934-33.629l-26.955-40.433c-5.052-7.579-4.053-17.67,2.388-24.11l18.381-18.381
	c6.44-6.44,16.532-7.44,24.11-2.388l40.435,26.955c10.504-5.917,21.773-10.617,33.629-13.934l9.529-47.645
	c1.786-8.931,9.629-15.361,18.737-15.361h25.995c9.108,0,16.951,6.429,18.737,15.361l9.529,47.645
	c11.856,3.318,23.125,8.018,33.629,13.934l40.433-26.955c7.579-5.052,17.67-4.053,24.11,2.388l18.381,18.381
	c6.44,6.44,7.44,16.532,2.388,24.11l-26.955,40.433c5.917,10.504,10.617,21.773,13.934,33.629l47.645,9.529
	C497.486,188.325,503.916,196.168,503.916,205.276z"/>
<path style="fill:#809DED;" d="M309.341,318.314c-28.183,4.399-55.457-3.285-76.567-19.198h-30.668v-32.337h2.718
	c-5.439-9.968-9.286-21.025-11.138-32.891c-8.623-55.251,29.174-107.032,84.426-115.655c55.251-8.623,107.032,29.174,115.655,84.426
	C402.391,257.909,364.592,309.691,309.341,318.314z"/>
<path style="fill:#CEDEEC;" d="M351.173,209.307c4.952,31.727-16.754,61.462-48.48,66.413c-31.727,4.952-61.462-16.754-66.413-48.48
	s16.754-61.462,48.48-66.413S346.221,177.58,351.173,209.307z"/>
<path style="fill:#809DED;" d="M326.739,213.121c2.846,18.233-9.628,35.319-27.859,38.165c-18.233,2.846-35.319-9.628-38.165-27.859
	s9.628-35.319,27.859-38.165C306.805,182.416,323.892,194.889,326.739,213.121z"/>
<path style="fill:#5D7EAC;" d="M298.879,251.286c-6.352,0.992-12.564,0.119-18.085-2.204c13.844-5.801,22.496-20.464,20.077-35.961
	c-1.854-11.879-9.757-21.31-20.08-25.655c2.445-1.024,5.047-1.777,7.783-2.204c18.233-2.846,35.319,9.628,38.165,27.859
	C329.585,231.353,317.111,248.44,298.879,251.286z"/>
<path style="fill:#F5D472;" d="M320.674,342.232c11.906,0,21.558,9.651,21.558,21.558v10.779c0,11.906-9.651,21.558-21.558,21.558
	c11.906,0,21.558,9.651,21.558,21.558v10.779c0,11.906-9.651,21.558-21.558,21.558c11.906,0,21.558,9.651,21.558,21.558v10.779
	c0,11.906-9.651,21.558-21.558,21.558H174.233c-9.729,0-19.061-3.852-25.957-10.713c-6.942-6.907-16.296-10.845-26.088-10.845
	h-49.43V320.674h49.134c9.279,0,17.517-5.937,20.451-14.74l3.011-9.032c9.032-27.091,13.636-55.461,13.636-84.019l0,0
	c0-11.906,9.651-21.558,21.558-21.558l0,0c17.86,0,32.338,14.478,32.337,32.339l-0.003,64.672h107.793
	c11.906,0,21.558,9.651,21.558,21.558v10.779C342.232,332.58,332.58,342.232,320.674,342.232z"/>
<path style="fill:#D9B166;" d="M212.884,223.664l-0.003,64.673h-10.778c-11.906,0-21.559-9.653-21.558-21.559l0.002-43.114
	c0-11.192-5.686-21.053-14.325-26.859c3.81-3.396,8.818-5.479,14.325-5.479l0,0C198.407,191.326,212.885,205.806,212.884,223.664z
	 M342.232,320.674v-10.779c0-11.906-9.651-21.558-21.558-21.558h-16.168c8.929,0,16.168,7.239,16.168,16.168
	s-7.239,16.168-16.168,16.168h-5.389h-37.726h-16.168c-5.953,0-10.779,4.826-10.779,10.779c0,5.953,4.826,10.779,10.779,10.779
	h16.168h37.726h5.389c8.929,0,16.168,7.239,16.168,16.168c0,8.929-7.239,16.168-16.168,16.168h-5.389h-37.726h-16.168
	c-5.953,0-10.779,4.826-10.779,10.779s4.826,10.779,10.779,10.779h16.168h37.726h5.389c8.929,0,16.168,7.239,16.168,16.168
	c0,8.929-7.239,16.168-16.168,16.168h-5.389h-37.726h-16.168c-5.953,0-10.779,4.826-10.779,10.779
	c0,5.953,4.826,10.779,10.779,10.779h16.168h37.726h5.389c8.929,0,16.168,7.239,16.168,16.168c0,8.929-7.239,16.168-16.168,16.168
	h-5.389h-37.726h-16.168c-5.953,0-10.779,4.826-10.779,10.779c0,5.953,4.826,10.779,10.779,10.779h43.116h21.558h10.779
	c11.906,0,21.558-9.651,21.558-21.558v-10.779c0-11.906-9.651-21.558-21.558-21.558c11.906,0,21.558-9.651,21.558-21.558v-10.779
	c0-11.906-9.651-21.558-21.558-21.558c11.906,0,21.558-9.651,21.558-21.558v-10.779c0-11.906-9.651-21.558-21.558-21.558
	C332.58,342.232,342.232,332.58,342.232,320.674z M72.758,482.358h43.116V320.674H72.758V482.358z"/>
<path style="fill:#809DED;" d="M94.316,309.895v183.242c0,5.953-4.826,10.779-10.779,10.779H18.863
	c-5.953,0-10.779-4.826-10.779-10.779V309.895c0-5.953,4.826-10.779,10.779-10.779h64.674
	C89.49,299.116,94.316,303.941,94.316,309.895z"/>
<path style="fill:#5D7EAC;" d="M94.316,309.895v183.242c0,5.953-4.826,10.779-10.779,10.779H51.2
	c5.953,0,10.779-4.826,10.779-10.779V309.895c0-5.953-4.826-10.779-10.779-10.779h32.337
	C89.49,299.116,94.316,303.941,94.316,309.895z"/>
<path d="M350.316,309.895v10.779c0,8.485-3.584,16.149-9.317,21.558c5.733,5.409,9.317,13.073,9.317,21.558v10.779
	c0,8.485-3.584,16.149-9.317,21.558c5.733,5.409,9.317,13.073,9.317,21.558v10.779c0,8.485-3.584,16.149-9.317,21.558
	c5.733,5.409,9.317,13.073,9.317,21.558v10.779c0,16.344-13.297,29.642-29.642,29.642H174.233c-11.947,0-23.191-4.641-31.66-13.067
	c-5.503-5.475-12.742-8.491-20.386-8.491H102.4v2.695c0,10.401-8.463,18.863-18.863,18.863H18.863C8.463,512,0,503.537,0,493.137
	V309.895c0-10.401,8.463-18.863,18.863-18.863h64.674c10.401,0,18.863,8.463,18.863,18.863v2.695h19.492
	c5.809,0,10.945-3.703,12.782-9.213l3.011-9.032c8.773-26.314,13.221-53.721,13.221-81.461c0-16.344,13.297-29.642,29.642-29.642
	c10.797,0,20.949,4.205,28.584,11.84s11.839,17.786,11.839,28.584v86.229c0,4.466-3.62,8.084-8.084,8.084
	c-4.465,0-8.084-3.62-8.084-8.084v-86.229c0-6.479-2.522-12.569-7.103-17.15s-10.671-7.104-17.15-7.104
	c-7.43,0-13.474,6.044-13.474,13.474c0,29.481-4.728,58.609-14.051,86.574l-3.009,9.032c-4.042,12.122-15.343,20.268-28.121,20.268
	H102.4v24.253c0,4.466-3.62,8.084-8.084,8.084s-8.084-3.618-8.084-8.084v-43.116c0-1.486-1.209-2.695-2.695-2.695H18.863
	c-1.485,0-2.695,1.208-2.695,2.695v183.242c0,1.486,1.209,2.695,2.695,2.695h24.253V385.347c0-4.466,3.62-8.084,8.084-8.084
	s8.084,3.618,8.084,8.084v110.484h24.253c1.485,0,2.695-1.208,2.695-2.695V385.347c0-4.466,3.62-8.084,8.084-8.084
	s8.084,3.618,8.084,8.084v88.926h19.788c11.947,0,23.237,4.688,31.79,13.198c5.417,5.391,12.611,8.36,20.256,8.36h146.44
	c7.43,0,13.474-6.044,13.474-13.474v-10.779c0-7.43-6.044-13.474-13.474-13.474h-75.453c-4.465,0-8.084-3.618-8.084-8.084
	s3.62-8.084,8.084-8.084h75.453c7.43,0,13.474-6.044,13.474-13.474v-10.779c0-7.43-6.044-13.474-13.474-13.474h-75.453
	c-4.465,0-8.084-3.618-8.084-8.084c0-4.466,3.62-8.084,8.084-8.084h75.453c7.43,0,13.474-6.044,13.474-13.474v-10.779
	c0-7.43-6.044-13.474-13.474-13.474h-75.453c-4.465,0-8.084-3.618-8.084-8.084s3.62-8.084,8.084-8.084h75.453
	c7.43,0,13.474-6.044,13.474-13.474v-10.779c0-7.43-6.044-13.474-13.474-13.474h-75.453c-4.465,0-8.084-3.618-8.084-8.084
	s3.62-8.084,8.084-8.084h75.453C337.019,280.253,350.316,293.551,350.316,309.895z M252.726,224.673
	c-3.529-22.607,11.993-43.869,34.6-47.399l0,0c22.602-3.531,43.87,11.994,47.398,34.602c3.529,22.607-11.993,43.869-34.6,47.399
	c-2.158,0.337-4.304,0.5-6.423,0.5C273.62,259.774,255.918,245.122,252.726,224.673z M268.702,222.18
	c2.154,13.798,15.133,23.273,28.931,21.119c13.798-2.155,23.272-15.133,21.118-28.932c-2.154-13.798-15.13-23.262-28.931-21.119l0,0
	C276.022,195.403,266.548,208.381,268.702,222.18z M361.144,142.298c2.688-3.565,1.977-8.634-1.589-11.321
	c-23.838-17.972-53.206-25.34-82.691-20.73c-33.834,5.28-62.67,25.561-79.115,55.644c-2.142,3.918-0.702,8.829,3.215,10.972
	c1.231,0.673,2.56,0.993,3.871,0.992c2.86,0,5.632-1.521,7.1-4.207c14.017-25.64,38.591-42.926,67.422-47.425
	c25.126-3.925,50.151,2.352,70.464,17.666C353.388,146.574,358.457,145.864,361.144,142.298z M490.14,178.611l-42.868-8.572
	c-2.839-9.047-6.48-17.834-10.867-26.228l24.252-36.378c7.165-10.748,5.737-25.176-3.398-34.312l-18.38-18.38
	c-9.134-9.135-23.563-10.566-34.312-3.398l-36.378,24.252c-8.395-4.387-17.183-8.028-26.228-10.867l-8.574-42.868
	C330.854,9.193,319.641,0,306.724,0h-25.995c-12.916,0-24.131,9.193-26.664,21.86l-8.574,42.868
	c-9.046,2.839-17.834,6.48-26.228,10.867l-36.378-24.252c-10.748-7.165-25.179-5.738-34.312,3.396l-18.381,18.382
	c-9.133,9.134-10.561,23.563-3.396,34.31l24.252,36.378c-4.387,8.395-8.028,17.182-10.867,26.228l-42.868,8.572
	c-12.666,2.534-21.86,13.747-21.86,26.665v25.993c0,12.917,9.193,24.132,21.86,26.665l27.755,5.55
	c4.379,0.874,8.637-1.964,9.512-6.342c0.875-4.378-1.964-8.637-6.342-9.512l-27.755-5.55c-5.134-1.025-8.861-5.573-8.861-10.809
	v-25.993c0-5.236,3.727-9.784,8.861-10.81l47.645-9.529c2.984-0.597,5.38-2.819,6.2-5.749c3.105-11.1,7.545-21.812,13.193-31.84
	c1.494-2.652,1.371-5.919-0.317-8.452l-26.955-40.433c-2.905-4.357-2.325-10.208,1.378-13.909l18.381-18.382
	c3.703-3.703,9.552-4.281,13.909-1.376L214.35,91.75c2.532,1.689,5.799,1.811,8.452,0.318c10.029-5.649,20.741-10.087,31.84-13.192
	c2.931-0.82,5.152-3.215,5.749-6.2l9.529-47.645c1.027-5.135,5.573-8.862,10.809-8.862h25.995c5.236,0,9.783,3.727,10.809,8.862
	l9.529,47.645c0.597,2.985,2.819,5.38,5.749,6.2c11.098,3.105,21.811,7.543,31.84,13.192c2.653,1.493,5.919,1.371,8.452-0.318
	l40.434-26.955c4.357-2.905,10.207-2.327,13.909,1.378l18.38,18.38c3.704,3.704,4.282,9.553,1.378,13.91l-26.955,40.433
	c-1.689,2.533-1.812,5.8-0.317,8.452c5.648,10.028,10.087,20.74,13.193,31.84c0.82,2.931,3.216,5.152,6.2,5.749l47.645,9.529
	c5.135,1.026,8.861,5.574,8.861,10.81v25.993c0,5.236-3.727,9.784-8.861,10.81l-47.645,9.529c-2.984,0.597-5.38,2.819-6.2,5.749
	c-3.105,11.098-7.544,21.81-13.193,31.84c-1.494,2.653-1.371,5.919,0.317,8.452l26.955,40.433
	c2.905,4.357,2.325,10.208-1.378,13.909l-18.381,18.382c-3.703,3.703-9.551,4.281-13.909,1.376l-40.433-26.954
	c-3.714-2.477-8.734-1.473-11.21,2.242c-2.477,3.714-1.472,8.734,2.242,11.21l40.433,26.955c4.582,3.055,9.831,4.548,15.057,4.548
	c7.03,0,14.015-2.704,19.254-7.944l18.381-18.382c9.133-9.134,10.561-23.563,3.396-34.31l-24.252-36.378
	c4.387-8.396,8.028-17.183,10.867-26.228l42.868-8.572c12.666-2.534,21.86-13.747,21.86-26.665v-25.993
	C512,192.359,502.807,181.146,490.14,178.611z M366.829,296.421c2.129,0,4.253-0.835,5.841-2.494
	c23.782-24.85,34.382-58.57,29.084-92.514c-2.692-17.244-9.208-33.113-19.371-47.163c-2.616-3.616-7.669-4.43-11.289-1.813
	c-3.617,2.617-4.429,7.67-1.813,11.289c8.652,11.964,14.203,25.483,16.497,40.18c4.514,28.925-4.521,57.662-24.79,78.843
	c-3.087,3.225-2.975,8.343,0.251,11.43C362.807,295.677,364.82,296.421,366.829,296.421z"/>
<g>
</g>
<g>
</g>
<g>
</g>
<g>
</g>
<g>
</g>
<g>
</g>
<g>
</g>
<g>
</g>
<g>
</g>
<g>
</g>
<g>
</g>
<g>
</g>
<g>
</g>
<g>
</g>
<g>
</g>
</svg>
