<?xml version="1.0" encoding="iso-8859-1"?>
<!-- Generator: Adobe Illustrator 19.0.0, SVG Export Plug-In . SVG Version: 6.00 Build 0)  -->
<svg version="1.1" id="Capa_1" xmlns="http://www.w3.org/2000/svg" xmlns:xlink="http://www.w3.org/1999/xlink" x="0px" y="0px"
	 viewBox="0 0 512 512" style="enable-background:new 0 0 512 512;" xml:space="preserve">
<path style="fill:#D8D8E4;" d="M455.502,357.997H228.508c-25.68,0-46.499,20.818-46.499,46.499v97.497H502v-97.497
	C502,378.816,481.182,357.997,455.502,357.997z"/>
<path style="fill:#6A80FF;" d="M455.502,357.997H228.508c-25.68,0-46.499,20.818-46.499,46.499v49.501H502v-49.501
	C502,378.816,481.182,357.997,455.502,357.997z"/>
<rect x="10" y="370" style="fill:#FFB954;" width="123.997" height="131.996"/>
<rect x="10" y="370" style="fill:#FFC66C;" width="123.997" height="65.998"/>
<polygon style="fill:#FF5D5D;" points="103.903,256.127 40.094,256.127 27.196,325.498 116.801,325.498 "/>
<rect x="230.004" y="76.008" style="fill:#C9F3FF;" width="223.994" height="119.997"/>
<polygon style="fill:#A0E557;" points="454.002,196.002 402.003,144.003 350.004,196.002 "/>
<polygon style="fill:#62CD4D;" points="258.946,196.015 325.474,129.485 392.003,196.015 "/>
<g>
	<path style="fill:#FFFFFF;" d="M434.002,270h-63.998c-15.464,0-27.999,12.536-27.999,27.999v59.998h119.997v-59.998
		C462.001,282.535,449.466,270,434.002,270z"/>
	<path style="fill:#FFFFFF;" d="M314.005,270h-63.998c-15.464,0-27.999,12.536-27.999,27.999v59.998h119.997v-59.998
		C342.005,282.535,329.469,270,314.005,270z"/>
</g>
<path d="M472.001,350.461v-52.463c0-20.952-17.047-37.999-37.999-37.999h-63.998c-11.071,0-21.047,4.761-27.999,12.341
	C335.053,264.762,325.076,260,314.005,260h-63.998c-20.952,0-37.999,17.047-37.999,37.999v52.463
	c-23.128,7.077-39.999,28.619-39.999,54.035v97.497c0,5.522,4.478,10,10,10H502c5.522,0,10-4.478,10-10v-97.497
	C512,379.081,495.129,357.537,472.001,350.461z M370.004,279.999h63.998c9.925,0,18,8.075,18,18v49.999h-99.997v-49.999
	C352.004,288.074,360.079,279.999,370.004,279.999z M232.008,297.999c0-9.925,8.075-18,18-18h63.998c9.925,0,18,8.075,18,18v49.999
	h-99.997V297.999z M192.009,491.994v-83.998h65.468c5.522,0,10-4.478,10-10s-4.478-10-10-10h-61.509
	c6.036-11.855,18.352-19.999,32.541-19.999h113.497h113.497c20.125,0,36.499,16.374,36.499,36.499v39.501H258.848
	c-5.522,0-10,4.478-10,10s4.478,10,10,10H492v27.997L192.009,491.994L192.009,491.994z"/>
<path d="M219.008,443.995c-2.63,0-5.21,1.069-7.07,2.93c-1.86,1.861-2.93,4.44-2.93,7.07c0,2.64,1.069,5.21,2.93,7.069
	c1.86,1.86,4.44,2.931,7.07,2.931s5.21-1.07,7.069-2.931c1.86-1.859,2.931-4.439,2.931-7.069s-1.07-5.21-2.931-7.07
	C224.218,445.064,221.638,443.995,219.008,443.995z"/>
<path d="M72.002,412.996c2.63,0,5.199-1.07,7.069-2.931c1.86-1.859,2.92-4.439,2.92-7.069c0-2.63-1.06-5.21-2.92-7.07
	c-1.87-1.86-4.439-2.93-7.069-2.93c-2.631,0-5.21,1.069-7.07,2.93c-1.87,1.86-2.94,4.44-2.94,7.07c0,2.63,1.07,5.21,2.94,7.069
	C66.792,411.926,69.371,412.996,72.002,412.996z"/>
<path d="M72.002,459.404c-2.641,0-5.21,1.069-7.07,2.93c-1.87,1.86-2.94,4.44-2.94,7.07c0,2.63,1.07,5.21,2.94,7.069
	c1.86,1.87,4.439,2.931,7.07,2.931c2.63,0,5.199-1.061,7.069-2.931c1.86-1.859,2.92-4.43,2.92-7.069c0-2.63-1.06-5.21-2.92-7.07
	C77.212,460.473,74.632,459.404,72.002,459.404z"/>
<path d="M133.996,359.997H81.998v-24.499h34.803c2.973,0,5.79-1.322,7.69-3.607c1.899-2.286,2.685-5.298,2.141-8.221l-12.897-69.371
	c-0.88-4.736-5.013-8.172-9.831-8.172h-63.81c-4.818,0-8.951,3.436-9.832,8.172L17.366,323.67c-0.543,2.923,0.242,5.935,2.142,8.221
	c1.9,2.285,4.719,3.607,7.69,3.607h34.801v24.499H10c-5.522,0-10,4.478-10,10v131.996c0,5.522,4.478,10,10,10h123.997
	c5.522,0,10-4.478,10-10V369.997C143.996,364.474,139.518,359.997,133.996,359.997z M48.406,266.127h47.186l9.18,49.372H39.227
	L48.406,266.127z M123.997,379.997v45.999H19.999v-45.999H123.997z M19.999,491.994v-45.999h103.997v45.999H19.999z"/>
<path d="M230.008,206.001h28.683c0.171,0.004,0.341,0.004,0.511,0h194.8c5.522,0,10-4.478,10-10V76.005c0-5.522-4.478-10-10-10
	H436.72L347.855,1.897c-3.494-2.52-8.207-2.52-11.701,0L247.29,66.005h-17.282c-5.522,0-10,4.478-10,10v119.997
	C220.008,201.524,224.485,206.001,230.008,206.001z M396.133,186.002l-11-11l16.857-16.857l27.856,27.856H396.133z M367.848,186.002
	H283.1l42.374-42.374L367.848,186.002z M342.005,22.337l60.53,43.668H281.474L342.005,22.337z M240.007,86.005h203.994v85.868
	l-34.94-34.94c-3.906-3.904-10.236-3.904-14.143,0l-23.928,23.928l-38.445-38.445c-3.906-3.904-10.236-3.904-14.143,0
	l-63.587,63.587h-14.81V86.005H240.007z"/>
<path d="M267.439,114.622c2.82,0,5.47,1.107,7.459,3.118c1.879,1.897,4.438,2.966,7.108,2.966c2.67,0,5.229-1.068,7.108-2.966
	c1.989-2.011,4.639-3.118,7.459-3.118c5.522,0,10-4.478,10-10c0-5.522-4.478-10-10-10c-5.176,0-10.149,1.279-14.567,3.69
	c-4.418-2.411-9.392-3.69-14.567-3.69c-5.522,0-10,4.478-10,10C257.439,110.144,261.917,114.622,267.439,114.622z"/>
<path d="M362.849,130.022c2.82,0,5.47,1.107,7.46,3.118c1.879,1.897,4.438,2.965,7.107,2.965c2.669,0,5.229-1.067,7.107-2.965
	c1.99-2.011,4.64-3.118,7.46-3.118c5.522,0,10-4.478,10-10c0-5.522-4.478-10-10-10c-5.176,0-10.149,1.279-14.567,3.689
	c-4.418-2.41-9.392-3.689-14.567-3.689c-5.522,0-10,4.478-10,10C352.849,125.545,357.327,130.022,362.849,130.022z"/>
<path d="M302.805,407.996c2.64,0,5.21-1.07,7.07-2.931c1.87-1.859,2.93-4.439,2.93-7.069c0-2.63-1.06-5.21-2.93-7.07
	c-1.86-1.86-4.44-2.93-7.07-2.93s-5.21,1.069-7.07,2.93c-1.859,1.86-2.93,4.44-2.93,7.07c0,2.63,1.07,5.21,2.93,7.069
	C297.596,406.926,300.176,407.996,302.805,407.996z"/>
<g>
</g>
<g>
</g>
<g>
</g>
<g>
</g>
<g>
</g>
<g>
</g>
<g>
</g>
<g>
</g>
<g>
</g>
<g>
</g>
<g>
</g>
<g>
</g>
<g>
</g>
<g>
</g>
<g>
</g>
</svg>
