<?xml version="1.0" encoding="iso-8859-1"?>
<!-- Generator: Adobe Illustrator 19.0.0, SVG Export Plug-In . SVG Version: 6.00 Build 0)  -->
<svg version="1.1" id="Capa_1" xmlns="http://www.w3.org/2000/svg" xmlns:xlink="http://www.w3.org/1999/xlink" x="0px" y="0px"
	 viewBox="0 0 512 512" style="enable-background:new 0 0 512 512;" xml:space="preserve">
<path style="fill:#C70024;" d="M278.258,95.982v32.857c0,9.226-7.479,16.705-16.705,16.705H16.182c-4.548,0-8.232-3.684-8.232-8.232
	V15.761c0-4.548,3.684-8.232,8.232-8.232h131.289c4.548,0,8.232,3.684,8.232,8.232v12.749h44.191
	c23.501,0,42.555,19.054,42.555,42.555c0,4.528,3.674,8.212,8.212,8.212h10.892C270.779,79.278,278.258,86.757,278.258,95.982z"/>
<path style="fill:#FFA733;" d="M155.703,15.761v129.783H16.182c-4.548,0-8.232-3.684-8.232-8.232V15.761
	c0-4.548,3.684-8.232,8.232-8.232h131.289C152.019,7.529,155.703,11.213,155.703,15.761z"/>
<path style="fill:#EE8700;" d="M278.258,114.434v14.406c0,9.226-7.479,16.705-16.705,16.705H16.182
	c-4.548,0-8.232-3.684-8.232-8.232v-22.879H278.258z"/>
<circle style="fill:#1D1D1F;" cx="79.036" cy="145.545" r="40.762"/>
<path style="fill:#898890;" d="M98.742,145.545c0,7.288-3.955,13.653-9.848,17.066c-2.901,1.677-6.264,2.64-9.858,2.64
	c-10.882,0-19.706-8.824-19.706-19.706c0-10.882,8.824-19.706,19.706-19.706c3.594,0,6.957,0.964,9.858,2.64
	C94.787,131.892,98.742,138.256,98.742,145.545z"/>
<path style="fill:#ACABB1;" d="M98.742,145.545c0,7.288-3.955,13.653-9.848,17.066c-5.893-3.403-9.858-9.768-9.858-17.066
	s3.965-13.663,9.858-17.066C94.787,131.892,98.742,138.256,98.742,145.545z"/>
<path style="fill:#96C8EF;" d="M217.302,71.598v5.1c0,2.931-2.399,5.331-5.331,5.331h-30.247c-2.931,0-5.331-2.399-5.331-5.331
	V55.827c0-2.931,2.399-5.331,5.331-5.331H196.2c11.234,0,20.489,8.895,21.072,19.988C217.292,70.855,217.302,71.226,217.302,71.598z
	"/>
<path style="fill:#C2DFF6;" d="M217.272,70.483h-24.003c-2.931,0-5.331-2.399-5.331-5.331V50.496h8.262
	C207.434,50.496,216.689,59.39,217.272,70.483z"/>
<path style="fill:#317F46;" d="M504.054,336.756c0,36.241-18.733,68.104-47.032,86.455c-4.267,2.761-7.83,6.475-10.33,10.902
	l-31.562,55.766l-5.411,9.557c-3.805,6.706-13.472,6.706-17.267,0l-36.983-65.323c-2.5-4.417-6.053-8.132-10.31-10.892
	c-28.701-18.602-47.565-51.108-47.032-87.981c0.793-55.445,46.049-100.67,101.484-101.443c5.29-0.07,10.491,0.251,15.57,0.954
	C465.374,241.617,504.054,284.674,504.054,336.756z"/>
<path style="fill:#368B4C;" d="M504.054,336.756c0,36.241-18.733,68.104-47.032,86.455c-4.267,2.761-7.83,6.475-10.33,10.902
	l-31.562,55.766l-31.562-55.766c-2.5-4.417-6.053-8.132-10.31-10.892c-28.711-18.602-47.574-51.108-47.042-87.981
	c0.743-51.199,39.393-93.693,88.965-100.49C465.374,241.617,504.054,284.674,504.054,336.756z"/>
<path style="fill:#EE8700;" d="M465.394,334.447c0,30.117-20.7,55.395-48.649,62.382c-5.009,1.265-10.26,1.927-15.661,1.927
	c-35.518,0-64.319-28.792-64.319-64.309s28.802-64.319,64.319-64.319c5.401,0,10.651,0.663,15.661,1.927
	C444.694,279.042,465.394,304.33,465.394,334.447z"/>
<path style="fill:#FFA733;" d="M465.394,334.447c0,30.117-20.7,55.395-48.649,62.382c-27.948-6.987-48.649-32.265-48.649-62.382
	s20.7-55.405,48.649-62.392C444.694,279.042,465.394,304.33,465.394,334.447z"/>
<path style="fill:#830018;" d="M278.258,114.434v14.406c0,9.226-7.479,16.705-16.705,16.705H155.703v-31.111H278.258z"/>
<circle style="fill:#1D1D1F;" cx="215.335" cy="145.545" r="40.762"/>
<path style="fill:#898890;" d="M235.041,145.545c0,7.288-3.965,13.653-9.848,17.066c-2.901,1.677-6.264,2.64-9.858,2.64
	c-10.882,0-19.706-8.824-19.706-19.706c0-10.882,8.824-19.706,19.706-19.706c3.594,0,6.957,0.964,9.858,2.64
	C231.075,131.892,235.041,138.256,235.041,145.545z"/>
<path style="fill:#ACABB1;" d="M235.041,145.545c0,7.288-3.965,13.653-9.848,17.066c-5.893-3.403-9.858-9.768-9.858-17.066
	s3.965-13.663,9.858-17.066C231.075,131.892,235.041,138.256,235.041,145.545z"/>
<path d="M79.035,193.842c24.073,0,44.091-17.699,47.715-40.768c9.414,0,31.369,0,40.879,0c3.614,23.069,23.632,40.768,47.705,40.768
	c24.083,0,44.101-17.729,47.715-40.818c12.669-0.773,22.738-11.324,22.738-24.184V95.982c0-13.362-10.872-24.234-24.234-24.234
	h-10.892c-0.381,0-0.683-0.311-0.683-0.683c0-27.617-22.467-50.084-50.084-50.084h-36.662v-5.22C163.232,7.067,156.165,0,147.471,0
	H16.182C7.488,0,0.421,7.067,0.421,15.761v121.551c0,8.694,7.067,15.761,15.761,15.761H31.34
	C34.954,176.143,54.972,193.842,79.035,193.842z M247.7,153.074c-3.413,14.717-16.635,25.71-32.366,25.71
	c-21.308,0-37.222-19.908-32.376-40.768c3.423-14.707,16.645-25.7,32.376-25.7C236.649,112.316,252.541,132.236,247.7,153.074z
	 M163.232,36.04h36.662c19.315,0,35.026,15.711,35.026,35.026c0,8.674,7.057,15.741,15.741,15.741h10.892
	c5.06,0,9.176,4.116,9.176,9.176v32.857c0,4.558-3.343,8.352-7.71,9.055c-3.684-23.009-23.662-40.638-47.685-40.638
	c-24.073,0-44.081,17.699-47.705,40.758h-4.397L163.232,36.04L163.232,36.04z M79.035,178.783
	c-18.419,0-33.229-15.006-33.229-33.239c0-18.229,14.829-33.229,33.229-33.229c15.741,0,28.952,10.993,32.376,25.7
	C116.23,158.753,100.459,178.783,79.035,178.783z M15.479,15.761c0-0.392,0.311-0.754,0.703-0.754
	c97.383,0.23,125.199-0.194,131.992,0v0.754v12.749v109.505h-21.423c-3.634-23.059-23.642-40.758-47.715-40.758
	c-24.063,0-44.071,17.699-47.695,40.758H16.182C14.794,138.015,15.806,144.317,15.479,15.761z"/>
<path d="M79.035,118.309c-18.141,0-31.182,17.483-26.172,34.765c3.273,11.374,13.763,19.706,26.172,19.706
	c18.141,0,31.182-17.483,26.172-34.765C101.934,126.641,91.444,118.309,79.035,118.309z M69.478,153.074
	c-3.497-4.391-3.495-10.668,0-15.058c7.215-9.165,21.734-3.82,21.734,7.529C91.213,156.776,76.748,162.308,69.478,153.074z"/>
<path d="M188.098,145.545c0,14.864,12.07,27.236,27.236,27.236c18.141,0,31.182-17.483,26.172-34.765
	C232.907,108.133,188.098,113.835,188.098,145.545z M224.891,153.074c-7.221,9.173-21.734,3.809-21.734-7.529
	c0-6.717,5.473-12.177,12.177-12.177C225.613,133.367,231.103,145.271,224.891,153.074z"/>
<path d="M181.724,89.557h30.247c7.087,0,12.86-5.772,12.86-12.86v-5.1c0-15.781-12.85-28.631-28.631-28.631h-14.476
	c-7.087,0-12.86,5.772-12.86,12.86v20.871C168.864,83.785,174.636,89.557,181.724,89.557z M183.922,58.025H196.2
	c7.479,0,13.573,6.094,13.573,13.573v2.901h-25.85V58.025z"/>
<path d="M323.057,258.692c-49.846,49.822-41.135,132.521,18.009,170.85c8.726,5.655,6.763,8.127,44.832,73.604
	c5.357,9.462,15.082,8.824,15.184,8.852c6.37,0,12.046-3.309,15.184-8.852c38.064-65.462,36.08-67.93,44.853-73.619
	c31.597-20.486,50.461-55.168,50.461-92.773C511.579,239.05,392.735,189.047,323.057,258.692z M452.927,416.893
	c-5.311,3.443-9.733,8.115-12.787,13.51c-37.646,64.996-36.554,67.159-39.059,66.537c-2.988,0-0.578-0.099-39.06-66.538
	c-3.056-5.398-7.47-10.065-12.767-13.497c-27.779-18.002-44.079-48.491-43.603-81.559c1.197-83.042,102.531-125.627,162.441-66.548
	C511.648,311.75,504.036,383.756,452.927,416.893z"/>
<path d="M376.713,266.309c-4.176,1.494-6.351,6.091-4.857,10.267c1.494,4.176,6.092,6.352,10.267,4.857
	c36.62-13.097,75.24,14.206,75.24,53.012c0,31.033-25.248,56.281-56.281,56.281c-49.564,0-74.545-59.502-40.825-95.024
	c3.054-3.216,2.922-8.3-0.295-11.354c-3.216-3.054-8.3-2.922-11.354,0.295c-43.345,45.659-11.242,122.144,52.474,122.144
	c39.891,0,72.344-32.453,72.344-72.344C473.425,284.554,423.776,249.477,376.713,266.309z"/>
<path d="M256.164,252.981H202.05c-4.158,0-7.529,3.371-7.529,7.529c0,4.158,3.371,7.529,7.529,7.529h54.114
	c25.463,0,46.178-20.715,46.178-46.178v-1.006c0-17.16,13.96-31.12,31.12-31.12h94.477c25.463,0,46.178-20.715,46.178-46.178
	v-10.039c0-25.463-20.715-46.178-46.178-46.178H304.47c-4.158,0-7.529,3.371-7.529,7.529s3.371,7.529,7.529,7.529h123.469
	c17.16,0,31.12,13.96,31.12,31.12v10.039c0,17.16-13.96,31.12-31.12,31.12h-94.477c-25.463,0-46.178,20.715-46.178,46.178v1.006
	C287.283,239.021,273.323,252.981,256.164,252.981z"/>
<path d="M358.058,492.912H168.823c-11.359,0-21.818-6.191-27.295-16.158c-2.003-3.644-6.582-4.976-10.225-2.972
	c-3.644,2.003-4.975,6.581-2.972,10.225c8.122,14.781,23.638,23.963,40.491,23.963h189.235c4.158,0,7.529-3.371,7.529-7.529
	C365.587,496.283,362.216,492.912,358.058,492.912z"/>
<path d="M138.883,453.268c3.78-13.304,16.09-22.596,29.94-22.596h19.076c25.463,0,46.178-20.715,46.178-46.178v-6.153
	c0-25.463-20.715-46.178-46.178-46.178H76.926c-17.16,0-31.12-13.96-31.12-31.12v-1.883c0-17.16,13.96-31.12,31.12-31.12h95.007
	c4.158,0,7.529-3.371,7.529-7.529c0-4.158-3.371-7.529-7.529-7.529H76.926c-25.463,0-46.178,20.715-46.178,46.178v1.883
	c0,25.463,20.715,46.178,46.178,46.178h110.972c17.16,0,31.12,13.96,31.12,31.12v6.153c0,17.16-13.96,31.12-31.12,31.12h-19.076
	c-20.548,0-38.817,13.792-44.425,33.539c-1.135,4,1.186,8.164,5.186,9.3C133.575,459.589,137.744,457.275,138.883,453.268z"/>
<path d="M380.288,365.813l22.886-18.051c3.455-2.725,5.437-6.811,5.437-11.211v-36.381c0-4.158-3.371-7.529-7.529-7.529
	c-4.158,0-7.529,3.371-7.529,7.529v36.003l-22.589,17.817c-3.265,2.575-3.825,7.309-1.249,10.574
	C372.29,367.829,377.023,368.388,380.288,365.813z"/>
<g>
</g>
<g>
</g>
<g>
</g>
<g>
</g>
<g>
</g>
<g>
</g>
<g>
</g>
<g>
</g>
<g>
</g>
<g>
</g>
<g>
</g>
<g>
</g>
<g>
</g>
<g>
</g>
<g>
</g>
</svg>
