<?xml version="1.0" encoding="iso-8859-1"?>
<!-- Generator: Adobe Illustrator 19.0.0, SVG Export Plug-In . SVG Version: 6.00 Build 0)  -->
<svg version="1.1" id="Capa_1" xmlns="http://www.w3.org/2000/svg" xmlns:xlink="http://www.w3.org/1999/xlink" x="0px" y="0px"
	 viewBox="0 0 511.989 511.989" style="enable-background:new 0 0 511.989 511.989;" xml:space="preserve">
<path style="fill:#FFD3AE;" d="M370.925,371.107c8.3-8.3,8.3-21.8,0-30.2l-27-27.1l-84.8-84.8l-34.7,34.7c-7.8,7.8-20.5,7.8-28.3,0
	c-7.8-7.8-7.8-20.5,0-28.3l62.4-62.4l3.1-3.1c-16.2-16.2-42.2-25.6-64.8-22.3l0,0c-11.1,1.6-48.5-8-59.1-11.5l-70.7,70.7l6.6,37.6
	c5.4,30.6,19.4,59.2,40.9,81.7c0.8,0.8,1.5,1.6,2.3,2.4l20.8,20.8l76.1,76.1c8.3,8.3,21.8,8.3,30.2,0l0,0c8.3-8.3,8.3-21.8,0-30.2
	l28.8,28.8c8.3,8.3,21.8,8.3,30.2,0l0,0c8.3-8.3,8.3-21.8,0-30.2l-87.2-87.2l109.8,109.8c8.3,8.3,21.8,8.3,30.2,0s8.3-21.8,0-30.2
	l-15.1-15.1C349.125,379.407,362.625,379.407,370.925,371.107z"/>
<path d="M262.025,302.407c-2.6,0-5.2-1.1-7.1-2.9c-1.9-1.9-2.9-4.4-2.9-7.1c0-2.6,1.1-5.2,2.9-7.1c2.3-2.3,5.8-3.4,9-2.7
	c0.6,0.1,1.3,0.3,1.9,0.6c0.6,0.3,1.2,0.6,1.7,0.9c0.5,0.4,1.1,0.8,1.5,1.3c1.9,1.9,2.9,4.4,2.9,7.1c0,2.6-1.1,5.2-2.9,7.1
	c-0.5,0.5-1,0.9-1.5,1.2c-0.5,0.4-1.1,0.7-1.7,0.9c-0.6,0.3-1.2,0.4-1.9,0.6C263.425,302.307,262.725,302.407,262.025,302.407z"/>
<rect x="16.315" y="113.661" transform="matrix(-0.7071 0.7071 -0.7071 -0.7071 236.8646 197.8095)" style="fill:#2C4D77;" width="122.299" height="68.599"/>
<rect x="381.52" y="111.558" transform="matrix(0.7071 0.7071 -0.7071 0.7071 230.1294 -268.1658)" style="fill:#F05642;" width="114.499" height="64.299"/>
<path style="fill:#DC9E5E;" d="M382.125,132.607c-6.1,2-21.8,6.2-35.3,8.8l0,0c-8.4,1.6-16,2.6-20,2c-21.2-3-42.6,4.1-57.8,19.3
	l-72.9,72.9c-7.8,7.8-7.8,20.5,0,28.3s20.5,7.8,28.3,0l66.7-66.7l11.8-11.8l-43.8,43.6l84.8,84.8l27.1,27.1c0.4,0.4,0.8,0.9,1.2,1.3
	l10-10l19.5-19.5c0.7-0.7,1.5-1.5,2.2-2.2c20.2-21,33.3-47.8,38.3-76.5l6.2-35.2L382.125,132.607z"/>
<path d="M509.025,154.407l-81-81c-3.9-3.9-10.2-3.9-14.1,0l-45.4,45.4c-2.2,2.2-3.2,5.2-2.9,8c-6.4,1.6-13.8,3.3-20.6,4.6l0,0
	c-12.4,2.3-16.1,2-16.7,1.9c-24.2-3.5-49,4.8-66.3,22.1l-0.7,0.7c-18.5-14.3-43.8-21.7-65.8-18.5c-5.7,0.8-25.4-3.2-40.7-7.1
	c0.5-3-0.5-6.3-2.8-8.6l-48.5-48.5c-3.9-3.9-10.2-3.9-14.1,0l-86.5,86.5c-3.9,3.9-3.9,10.2,0,14.1l48.5,48.5c2,2,4.5,2.9,7.1,2.9
	c0.6,0,1.2-0.1,1.8-0.2l3.7,20.8c5.9,33.2,20.9,63.3,43.6,86.9c0.8,0.8,1.6,1.7,2.5,2.5l96.9,96.9c5.9,5.9,13.8,9.2,22.2,9.2
	s16.2-3.3,22.2-9.2c2.8-2.8,5-6.1,6.5-9.5l8.1,8.1c5.9,5.9,13.8,9.2,22.2,9.2s16.2-3.3,22.2-9.2c2.8-2.8,5-6,6.5-9.5l2,2
	c12.2,12.2,32.1,12.2,44.3,0c10.4-10.4,11.9-26.3,4.7-38.4c3.9-1.6,7.4-3.9,10.4-6.9c5.9-5.9,9.2-13.8,9.2-22.2
	c0-4.3-0.9-8.4-2.5-12.3l24-24c0.8-0.8,1.5-1.6,2.3-2.4c21.3-22.2,35.5-50.4,41-81.7l3.3-18.8c0.4,0,0.8,0.1,1.2,0.1
	c2.6,0,5.1-1,7.1-2.9l45.4-45.4C512.925,164.607,512.925,158.307,509.025,154.407z M24.025,167.007l72.3-72.3l34.4,34.3l-72.3,72.3
	L24.025,167.007z M363.925,364.007L363.925,364.007c-2.1,2.1-5,3.3-8,3.3s-5.9-1.2-8-3.3l-56.5-56.5c-3.9-3.9-10.2-3.9-14.1,0
	s-3.9,10.2,0,14.1l71.6,71.6c4.4,4.4,4.4,11.6,0,16s-11.6,4.4-16,0l-110-109.8c-3.9-3.9-10.2-3.9-14.1,0c-2,2-2.9,4.5-2.9,7.1
	s1,5.1,2.9,7.1l87.2,87.2c2.1,2.1,3.3,5,3.3,8s-1.2,5.9-3.3,8s-5,3.3-8,3.3s-5.9-1.2-8-3.3l-90.1-90.1c-3.9-3.9-10.2-3.9-14.1,0
	c-3.9,3.9-3.9,10.2,0,14.1l61.3,61.3c0.1,0.1,0.1,0.1,0.2,0.1c4.3,4.4,4.2,11.5-0.1,15.9c-2.1,2.1-5,3.3-8,3.3s-5.9-1.2-8-3.3
	l-96.9-96.9c-0.7-0.7-1.5-1.5-2.2-2.2c-19.9-20.7-33.1-47.2-38.3-76.5l-5.9-32.3l62.8-62.8c13.7,3.9,45.2,11.9,57.6,10.1
	c15.9-2.3,34.6,3,48.7,13l-57.9,57.9c-0.4,0.4-0.7,0.7-1.1,1.1c-0.1,0.1-0.1,0.1-0.1,0.2c-0.3,0.3-0.6,0.7-0.9,1l0,0
	c-4.3,5.3-6.7,11.9-6.7,18.9c0,7,2.4,13.6,6.7,18.9l0,0c0.3,0.3,0.6,0.7,0.9,1c0,0.1,0.1,0.1,0.1,0.2c0.3,0.4,0.7,0.7,1.1,1.1
	s0.7,0.7,1.1,1.1c0.1,0,0.1,0.1,0.2,0.1c0.3,0.3,0.7,0.6,1,0.9l0,0c5.3,4.3,11.9,6.7,18.9,6.7c7.5,0,14.5-2.7,20-7.7
	c0,0,0.1,0,0.1-0.1c0.4-0.3,0.8-0.7,1.1-1.1l19.5-19.5l8.1-8.1l104.8,104.9l0,0c0.1,0.1,0.2,0.3,0.4,0.4c0.1,0.1,0.2,0.2,0.2,0.3
	c0.1,0.1,0.1,0.1,0.2,0.2c1.6,2,2.5,4.5,2.5,7.1C367.225,359.007,366.025,361.907,363.925,364.007z M396.625,303.507
	c-0.7,0.7-24.4,24.4-24.4,24.4l-99-98.9l24.9-24.9c3.9-3.9,3.9-10.2,0-14.1s-10.2-3.9-14.1,0c0,0-67.2,67.2-67.5,67.4l0,0
	c-3.6,2.9-8.8,3-12.5,0.1c0,0-0.1,0-0.1-0.1c-0.3-0.2-0.5-0.4-0.8-0.7s-0.5-0.5-0.7-0.8c0,0,0-0.1-0.1-0.1c-0.2-0.2-0.4-0.5-0.5-0.7
	l0,0c-2.2-3.3-2.2-7.7,0-11l0,0c0.2-0.2,0.3-0.5,0.5-0.7c0,0,0-0.1,0.1-0.1c0.2-0.3,0.4-0.5,0.7-0.8l65.6-65.6l7.3-7.3
	c12.9-12.9,31.3-19,49.3-16.4c3,0.4,8.7,0.7,23.3-2.1l0,0c11-2.1,22.8-5.1,30.6-7.3l22.2,22.2l-27.5,27.6
	c-12.6,12.6-33.2,12.6-45.9,0l-0.9-0.9c-3.9-3.9-10.2-3.9-14.1,0s-3.9,10.2,0,14.1l0.9,0.9c9.9,9.9,23.1,15.4,37.1,15.4
	s27.2-5.5,37.1-15.4l27.5-27.5l21.9,21.9l-5.3,30.1C427.425,259.607,415.125,284.207,396.625,303.507z M456.525,192.807l-1.1-1.1
	l0,0l-65.8-65.8l31.3-31.3l66.8,66.8L456.525,192.807z"/>
<g>
</g>
<g>
</g>
<g>
</g>
<g>
</g>
<g>
</g>
<g>
</g>
<g>
</g>
<g>
</g>
<g>
</g>
<g>
</g>
<g>
</g>
<g>
</g>
<g>
</g>
<g>
</g>
<g>
</g>
</svg>
